<svg xmlns="http://www.w3.org/2000/svg" version="1.1" xmlns:xlink="http://www.w3.org/1999/xlink" xmlns:svgjs="http://svgjs.dev/svgjs" width="2000" height="1376" viewBox="0 0 2000 1376"><g transform="matrix(1,0,0,1,0.011031933351659973,0.5570959699830382)"><svg viewBox="0 0 359 247" data-background-color="#2979ff" preserveAspectRatio="xMidYMid meet" height="1376" width="2000" xmlns="http://www.w3.org/2000/svg" xmlns:xlink="http://www.w3.org/1999/xlink"><g id="tight-bounds" transform="matrix(1,0,0,1,-0.001980232036629559,-0.10000196554202034)"><svg viewBox="0 0 359.00393675472213 247.2" height="247.2" width="359.00393675472213"><g><svg viewBox="0 0 395.52 272.3439327262863" height="247.2" width="359.00393675472213"><g transform="matrix(1,0,0,1,0,168.31947632155004)"><svg viewBox="0 0 395.52 104.02445640473626" height="104.02445640473626" width="395.52"><g id="textblocktransform"><svg viewBox="0 0 395.52 104.02445640473626" height="104.02445640473626" width="395.52" id="textblock"><g><svg viewBox="0 0 395.52 104.02445640473626" height="104.02445640473626" width="395.52"><g transform="matrix(1,0,0,1,0,0)"><svg width="395.52" viewBox="1.7999999523162842 -29.299999237060547 139.34999084472656 36.64999771118164" height="104.02445640473626" data-palette-color="#ffffff"><g class="undefined-text-0" data-fill-palette-color="primary" id="text-0"><path d="M32.85-22.7L32.85-22.7Q32.85-24.05 32.45-25L32.45-25 46.7-25Q48.5-20.2 49.38-13.25 50.25-6.3 50.3 0L50.3 0 38.75 0Q38.4-9 35.8-17.35L35.8-17.35Q31.45-8.85 31.1 0L31.1 0 21.3 0Q20-9.8 16.3-17.4L16.3-17.4Q13.6-11.05 13.6-5.6L13.6-5.6Q13.6-2.65 14.3 0L14.3 0 2.15 0Q1.8-2.05 1.8-5.43 1.8-8.8 2.8-12.2L2.8-12.2Q6.35-13.25 9.63-15.65 12.9-18.05 14.45-20.9L14.45-20.9Q13.15-23.05 11.7-25L11.7-25 27.5-25Q29.4-19.85 30.35-13.8L30.35-13.8Q32.85-18.45 32.85-22.7ZM91.85-17.3L91.85-17.3Q91.85-21.2 90.65-25L90.65-25 104.05-25Q104.1-24.25 104.1-22.8L104.1-22.8Q104.1-16.4 102.4-12.2L102.4-12.2Q97.95-10.9 95-8.75 92.05-6.6 92.05-4.33 92.05-2.05 94.1 0L94.1 0 81.5 0Q78.4-4.6 76.25-10.65L76.25-10.65Q74.6-6.9 74.6-4.33 74.6-1.75 76.05 0L76.05 0 63.5 0Q59.65-5.1 56.95-11.8 54.25-18.5 53.3-25L53.3-25 66.6-25Q67.45-14.25 71-7.15L71-7.15Q73.55-11.5 73.55-17.7L73.55-17.7Q73.55-21.05 72.7-25L72.7-25 84.6-25Q85.4-15.1 89.3-7.15L89.3-7.15Q91.85-11.85 91.85-17.3ZM138.3-24.05L138.3-24.05Q136.69-23.65 135.52-23.65 134.34-23.65 133.3-23.8L133.3-23.8Q130.34-21.7 126.19-16.95L126.19-16.95Q132.25-7.5 135.84 0L135.84 0 123.39 0Q121.34-4.4 119.3-7.95L119.3-7.95Q113.75-0.05 110.75 6.05L110.75 6.05Q109.75 6.3 107.8 6.73 105.84 7.15 105 7.35L105 7.35Q109.19-0.15 117.55-10.85L117.55-10.85Q112.39-18.9 105.89-25L105.89-25 121.44-25Q122.59-22.55 124.64-19.4L124.64-19.4Q125.05-19.85 126.19-21.23 127.34-22.6 128-23.3 128.65-24 129.69-25L129.69-25Q131.75-26.95 133.94-27.75L133.94-27.75Q134.8-28 137.4-28.28 140-28.55 141.15-29.3L141.15-29.3Q139.94-26.55 138.3-24.05Z" fill="#000000" data-fill-palette-color="primary"></path></g></svg></g></svg></g></svg></g></svg></g><g transform="matrix(1,0,0,1,125.91342323690482,0)"><svg viewBox="0 0 143.69315352619034 143.7617987513455" height="143.7617987513455" width="143.69315352619034"><g><svg xmlns="http://www.w3.org/2000/svg" xmlns:xlink="http://www.w3.org/1999/xlink" version="1.1" x="0" y="0" viewBox="0.015279531478881836 0 31.98472023010254 32" style="enable-background:new 0 0 32 32;" xml:space="preserve" height="143.7617987513455" width="143.69315352619034" class="icon-icon-0" data-fill-palette-color="accent" id="icon-0"><g fill="#ffffff" data-fill-palette-color="accent"><path d="M13.999 32c-0.19 0-0.383-0.055-0.554-0.168-0.459-0.307-0.583-0.927-0.277-1.387l3.647-5.472c0.374-0.561 0.969-0.951 1.63-1.071l9.494-1.726c0.18-0.033 0.327-0.162 0.383-0.336l1.348-4.202C29.896 17.065 30 16.53 30 15.983c0-0.157-0.101-0.295-0.25-0.346l-4.579-1.526c-0.525-0.176-0.982-0.525-1.288-0.985l-1.43-2.144c-0.062-0.092-0.152-0.162-0.258-0.197l-4.571-1.523C16.653 8.938 16 8.033 16 7.008V2.376c0-0.315-0.451-0.484-0.659-0.248L1.768 17.624c-0.364 0.415-0.997 0.455-1.411 0.093-0.416-0.363-0.458-0.996-0.094-1.411L13.836 0.811C14.288 0.295 14.939 0 15.624 0 16.934 0 18 1.066 18 2.376v4.632c0 0.162 0.104 0.305 0.257 0.356l4.572 1.524c0.525 0.176 0.982 0.525 1.288 0.985l1.43 2.144c0.062 0.092 0.152 0.162 0.258 0.197l4.579 1.526C31.351 14.063 32 14.965 32 15.983c0 0.804-0.151 1.588-0.449 2.333l-1.324 4.136c-0.282 0.879-1.021 1.527-1.93 1.692l-9.494 1.726c-0.131 0.024-0.249 0.102-0.323 0.214l-3.647 5.471C14.639 31.844 14.322 32 13.999 32z" fill="#000000" data-fill-palette-color="accent"></path><circle cx="20.5" cy="13.5" r="1.5" fill="#000000" data-fill-palette-color="accent"></circle></g></svg></g></svg></g><g></g></svg></g><defs></defs></svg><rect width="359.00393675472213" height="247.2" fill="none" stroke="none" visibility="hidden"></rect></g></svg></g></svg>